<?xml version="1.0" encoding="UTF-8" standalone="no"?>
<!DOCTYPE svg PUBLIC "-//W3C//DTD SVG 1.1//EN"
 "http://www.w3.org/Graphics/SVG/1.1/DTD/svg11.dtd">
<!-- Generated by graphviz version 13.1.2 (20250808.2320)
 -->
<!-- Title: G Pages: 1 -->
<svg width="242pt" height="314pt"
 viewBox="0.00 0.00 242.00 314.00" xmlns="http://www.w3.org/2000/svg" xmlns:xlink="http://www.w3.org/1999/xlink">
<g id="graph0" class="graph" transform="scale(1 1) rotate(0) translate(4 310)">
<title>G</title>
<polygon fill="white" stroke="none" points="-4,4 -4,-310 238,-310 238,4 -4,4"/>
<!-- 1 -->
<g id="node1" class="node">
<title>1</title>
<polygon fill="none" stroke="black" points="54,-63 0,-63 0,-27 54,-27 54,-63"/>
<text xml:space="preserve" text-anchor="middle" x="27" y="-42.2" font-family="Malgun Gothic" font-size="14.00">1</text>
</g>
<!-- 1_2 -->
<g id="node2" class="node">
<title>1_2</title>
<polygon fill="none" stroke="black" points="144,-90 90,-90 90,-54 144,-54 144,-90"/>
<text xml:space="preserve" text-anchor="middle" x="117" y="-69.2" font-family="Malgun Gothic" font-size="14.00">2</text>
</g>
<!-- 1&#45;&gt;1_2 -->
<g id="edge1" class="edge">
<title>1&#45;&gt;1_2</title>
<path fill="none" stroke="black" d="M54.4,-53.1C62.06,-55.45 70.57,-58.06 78.76,-60.57"/>
<polygon fill="black" stroke="black" points="77.58,-63.87 88.17,-63.46 79.64,-57.18 77.58,-63.87"/>
</g>
<!-- 1_3 -->
<g id="node4" class="node">
<title>1_3</title>
<polygon fill="none" stroke="black" points="144,-36 90,-36 90,0 144,0 144,-36"/>
<text xml:space="preserve" text-anchor="middle" x="117" y="-15.2" font-family="Malgun Gothic" font-size="14.00">3</text>
</g>
<!-- 1&#45;&gt;1_3 -->
<g id="edge3" class="edge">
<title>1&#45;&gt;1_3</title>
<path fill="none" stroke="black" d="M54.4,-36.9C62.06,-34.55 70.57,-31.94 78.76,-29.43"/>
<polygon fill="black" stroke="black" points="79.64,-32.82 88.17,-26.54 77.58,-26.13 79.64,-32.82"/>
</g>
<!-- 1_2_1 -->
<g id="node3" class="node">
<title>1_2_1</title>
<polygon fill="none" stroke="black" points="234,-90 180,-90 180,-54 234,-54 234,-90"/>
<text xml:space="preserve" text-anchor="middle" x="207" y="-69.2" font-family="Malgun Gothic" font-size="14.00">1</text>
</g>
<!-- 1_2&#45;&gt;1_2_1 -->
<g id="edge2" class="edge">
<title>1_2&#45;&gt;1_2_1</title>
<path fill="none" stroke="black" d="M144.4,-72C151.89,-72 160.18,-72 168.2,-72"/>
<polygon fill="black" stroke="black" points="168.1,-75.5 178.1,-72 168.1,-68.5 168.1,-75.5"/>
</g>
<!-- 1_3_2 -->
<g id="node5" class="node">
<title>1_3_2</title>
<polygon fill="none" stroke="black" points="234,-36 180,-36 180,0 234,0 234,-36"/>
<text xml:space="preserve" text-anchor="middle" x="207" y="-15.2" font-family="Malgun Gothic" font-size="14.00">2</text>
</g>
<!-- 1_3&#45;&gt;1_3_2 -->
<g id="edge4" class="edge">
<title>1_3&#45;&gt;1_3_2</title>
<path fill="none" stroke="black" d="M144.4,-18C151.89,-18 160.18,-18 168.2,-18"/>
<polygon fill="black" stroke="black" points="168.1,-21.5 178.1,-18 168.1,-14.5 168.1,-21.5"/>
</g>
<!-- 2 -->
<g id="node6" class="node">
<title>2</title>
<polygon fill="none" stroke="black" points="54,-171 0,-171 0,-135 54,-135 54,-171"/>
<text xml:space="preserve" text-anchor="middle" x="27" y="-150.2" font-family="Malgun Gothic" font-size="14.00">2</text>
</g>
<!-- 2_1 -->
<g id="node7" class="node">
<title>2_1</title>
<polygon fill="none" stroke="black" points="144,-198 90,-198 90,-162 144,-162 144,-198"/>
<text xml:space="preserve" text-anchor="middle" x="117" y="-177.2" font-family="Malgun Gothic" font-size="14.00">1</text>
</g>
<!-- 2&#45;&gt;2_1 -->
<g id="edge5" class="edge">
<title>2&#45;&gt;2_1</title>
<path fill="none" stroke="black" d="M54.4,-161.1C62.06,-163.45 70.57,-166.06 78.76,-168.57"/>
<polygon fill="black" stroke="black" points="77.58,-171.87 88.17,-171.46 79.64,-165.18 77.58,-171.87"/>
</g>
<!-- 2_3 -->
<g id="node9" class="node">
<title>2_3</title>
<polygon fill="none" stroke="black" points="144,-144 90,-144 90,-108 144,-108 144,-144"/>
<text xml:space="preserve" text-anchor="middle" x="117" y="-123.2" font-family="Malgun Gothic" font-size="14.00">3</text>
</g>
<!-- 2&#45;&gt;2_3 -->
<g id="edge7" class="edge">
<title>2&#45;&gt;2_3</title>
<path fill="none" stroke="black" d="M54.4,-144.9C62.06,-142.55 70.57,-139.94 78.76,-137.43"/>
<polygon fill="black" stroke="black" points="79.64,-140.82 88.17,-134.54 77.58,-134.13 79.64,-140.82"/>
</g>
<!-- 2_1_3 -->
<g id="node8" class="node">
<title>2_1_3</title>
<polygon fill="none" stroke="black" points="234,-198 180,-198 180,-162 234,-162 234,-198"/>
<text xml:space="preserve" text-anchor="middle" x="207" y="-177.2" font-family="Malgun Gothic" font-size="14.00">3</text>
</g>
<!-- 2_1&#45;&gt;2_1_3 -->
<g id="edge6" class="edge">
<title>2_1&#45;&gt;2_1_3</title>
<path fill="none" stroke="black" d="M144.4,-180C151.89,-180 160.18,-180 168.2,-180"/>
<polygon fill="black" stroke="black" points="168.1,-183.5 178.1,-180 168.1,-176.5 168.1,-183.5"/>
</g>
<!-- 2_3_1 -->
<g id="node10" class="node">
<title>2_3_1</title>
<polygon fill="none" stroke="black" points="234,-144 180,-144 180,-108 234,-108 234,-144"/>
<text xml:space="preserve" text-anchor="middle" x="207" y="-123.2" font-family="Malgun Gothic" font-size="14.00">1</text>
</g>
<!-- 2_3&#45;&gt;2_3_1 -->
<g id="edge8" class="edge">
<title>2_3&#45;&gt;2_3_1</title>
<path fill="none" stroke="black" d="M144.4,-126C151.89,-126 160.18,-126 168.2,-126"/>
<polygon fill="black" stroke="black" points="168.1,-129.5 178.1,-126 168.1,-122.5 168.1,-129.5"/>
</g>
<!-- 3 -->
<g id="node11" class="node">
<title>3</title>
<polygon fill="none" stroke="black" points="54,-279 0,-279 0,-243 54,-243 54,-279"/>
<text xml:space="preserve" text-anchor="middle" x="27" y="-258.2" font-family="Malgun Gothic" font-size="14.00">3</text>
</g>
<!-- 3_1 -->
<g id="node12" class="node">
<title>3_1</title>
<polygon fill="none" stroke="black" points="144,-306 90,-306 90,-270 144,-270 144,-306"/>
<text xml:space="preserve" text-anchor="middle" x="117" y="-285.2" font-family="Malgun Gothic" font-size="14.00">1</text>
</g>
<!-- 3&#45;&gt;3_1 -->
<g id="edge9" class="edge">
<title>3&#45;&gt;3_1</title>
<path fill="none" stroke="black" d="M54.4,-269.1C62.06,-271.45 70.57,-274.06 78.76,-276.57"/>
<polygon fill="black" stroke="black" points="77.58,-279.87 88.17,-279.46 79.64,-273.18 77.58,-279.87"/>
</g>
<!-- 3_2 -->
<g id="node14" class="node">
<title>3_2</title>
<polygon fill="none" stroke="black" points="144,-252 90,-252 90,-216 144,-216 144,-252"/>
<text xml:space="preserve" text-anchor="middle" x="117" y="-231.2" font-family="Malgun Gothic" font-size="14.00">2</text>
</g>
<!-- 3&#45;&gt;3_2 -->
<g id="edge11" class="edge">
<title>3&#45;&gt;3_2</title>
<path fill="none" stroke="black" d="M54.4,-252.9C62.06,-250.55 70.57,-247.94 78.76,-245.43"/>
<polygon fill="black" stroke="black" points="79.64,-248.82 88.17,-242.54 77.58,-242.13 79.64,-248.82"/>
</g>
<!-- 3_1_2 -->
<g id="node13" class="node">
<title>3_1_2</title>
<polygon fill="none" stroke="black" points="234,-306 180,-306 180,-270 234,-270 234,-306"/>
<text xml:space="preserve" text-anchor="middle" x="207" y="-285.2" font-family="Malgun Gothic" font-size="14.00">2</text>
</g>
<!-- 3_1&#45;&gt;3_1_2 -->
<g id="edge10" class="edge">
<title>3_1&#45;&gt;3_1_2</title>
<path fill="none" stroke="black" d="M144.4,-288C151.89,-288 160.18,-288 168.2,-288"/>
<polygon fill="black" stroke="black" points="168.1,-291.5 178.1,-288 168.1,-284.5 168.1,-291.5"/>
</g>
<!-- 3_2_3 -->
<g id="node15" class="node">
<title>3_2_3</title>
<polygon fill="none" stroke="black" points="234,-252 180,-252 180,-216 234,-216 234,-252"/>
<text xml:space="preserve" text-anchor="middle" x="207" y="-231.2" font-family="Malgun Gothic" font-size="14.00">3</text>
</g>
<!-- 3_2&#45;&gt;3_2_3 -->
<g id="edge12" class="edge">
<title>3_2&#45;&gt;3_2_3</title>
<path fill="none" stroke="black" d="M144.4,-234C151.89,-234 160.18,-234 168.2,-234"/>
<polygon fill="black" stroke="black" points="168.1,-237.5 178.1,-234 168.1,-230.5 168.1,-237.5"/>
</g>
</g>
</svg>
